<svg width="1058" height="785" viewBox="0 0 1058 785" fill="none" xmlns="http://www.w3.org/2000/svg">
<g id="BikeMan">
<g clip-path="url(#clip0)">
<g id="Man-Bike">
<path id="Vector" d="M387 554.303L344.293 512.159L330.947 525.683L373.654 567.827L387 554.303Z" fill="#B85959"/>
<path id="Vector_2" d="M354.48 491.99C354.48 491.99 379.27 478.91 388.85 470.49C394.617 465.444 400.818 460.917 407.38 456.96L438.48 438.03L503.48 433.03L506.48 444.03C506.48 444.03 511.48 460.03 461.48 474.03C411.48 488.03 386.48 510.03 386.48 510.03C386.48 510.03 354.48 520.99 354.48 491.99Z" fill="#DB8B8B"/>
<path id="Vector_3" opacity="0.1" d="M389.13 507.86C387.36 509.21 386.48 509.99 386.48 509.99C386.48 509.99 354.48 520.99 354.48 491.99C354.48 491.99 356.03 491.17 358.48 489.8C360.955 493.831 364.423 497.16 368.551 499.469C372.679 501.778 377.33 502.99 382.06 502.99H385.45L389.13 507.86Z" fill="black"/>
<path id="Vector_4" opacity="0.05" d="M505.54 449.55C502.76 455.44 493.17 465.12 461.48 473.99C420.87 485.36 396.75 501.99 389.13 507.86C387.36 509.21 386.48 509.99 386.48 509.99C386.48 509.99 354.48 520.99 354.48 491.99C354.48 491.99 356.03 491.17 358.48 489.8C365.91 485.73 381.64 476.8 388.82 470.45C394.586 465.403 400.787 460.875 407.35 456.92L438.45 437.99L450.03 437.1L503.45 432.99L506.45 443.99C506.45 443.99 507.15 446.14 505.54 449.55Z" fill="black"/>
<path id="Vector_5" d="M354.98 485.49L328.48 502.99L406.08 567.99C406.08 567.99 417.48 560.99 411.48 552.99C411.48 552.99 391.48 535.99 390.48 511.99L384.48 503.99H381.09C375.358 503.991 369.767 502.211 365.089 498.897C360.412 495.583 356.88 490.898 354.98 485.49V485.49Z" fill="#ABB1D1"/>
<path id="Vector_6" opacity="0.1" d="M505.54 449.55C489.54 441.82 450.48 440.99 450.48 440.99L450.06 437.1L503.48 432.99L506.48 443.99C506.48 443.99 507.15 446.14 505.54 449.55Z" fill="black"/>
<path id="Vector_7" d="M450.48 438.99C450.48 438.99 497.48 439.99 509.48 449.99L503.48 328.99H438.48L450.48 438.99Z" fill="#ABB1D1"/>
<path id="Vector_8" opacity="0.05" d="M450.48 438.49C450.48 438.49 497.48 439.49 509.48 449.49L503.48 328.49H438.48L450.48 438.49Z" fill="black"/>
<path id="Vector_9" d="M488.24 364.95C488.24 364.95 605.89 360.95 608.29 376.16C610.69 391.37 490.64 384.96 490.64 384.96C490.64 384.96 481.04 375.35 488.24 364.95Z" fill="#535461"/>
<path id="Vector_10" opacity="0.05" d="M488.24 364.95C488.24 364.95 605.89 360.95 608.29 376.16C610.69 391.37 490.64 384.96 490.64 384.96C490.64 384.96 481.04 375.35 488.24 364.95Z" fill="black"/>
<path id="Vector_11" d="M393 425.78H372.19V606.66H393V425.78Z" fill="#B85959"/>
<path id="Vector_12" opacity="0.1" d="M393 425.77V439.7C386.08 440.6 379 441.17 372.19 441.39V425.77H393Z" fill="black"/>
<path id="Vector_13" d="M391.44 410.78C388.52 410.554 385.616 410.164 382.74 409.61C371.46 407.45 343.02 402.92 335.37 410.61C325.77 420.21 328.97 437.02 354.58 439.42C380.19 441.82 424.21 435.42 433.02 425.81C433.02 425.77 417.09 412.75 391.44 410.78Z" fill="#535461"/>
<path id="Vector_14" d="M387.4 475.4L605.9 407.37L613.1 424.18L389 501.01L387.4 475.4Z" fill="#B85959"/>
<path id="Vector_15" d="M452.23 582.65L609.9 427.38L618.7 440.18L468.23 597.05L452.23 582.65Z" fill="#B85959"/>
<path id="Vector_16" opacity="0.1" d="M653.58 529.85C648.584 531.142 643.712 532.872 639.02 535.02L629.46 508.31C634.477 506.123 639.644 504.295 644.92 502.84L653.58 529.85Z" fill="black"/>
<path id="Vector_17" d="M680.33 608.26L669.13 614.66L590.99 396.33L587.49 386.56L605.9 376.15L610.51 390.53L680.33 608.26Z" fill="#B85959"/>
<path id="Vector_18" opacity="0.1" d="M610.51 390.53L590.99 396.33L587.49 386.56L605.9 376.15L610.51 390.53Z" fill="black"/>
<path id="Vector_19" d="M491.44 407.37L601.09 369.75C601.09 369.75 620.3 372.15 613.09 388.16L502.65 420.97C502.65 420.97 485.85 422.57 491.44 407.37Z" fill="#535461"/>
<path id="Vector_20" opacity="0.1" d="M367.79 615.86C367.789 621.994 367.314 628.119 366.37 634.18C356.77 633.49 346.85 632.49 337.13 631.49C339.289 619.599 339.021 607.394 336.34 595.61C345.81 593.61 355.48 591.7 364.92 589.97C366.833 598.467 367.795 607.15 367.79 615.86V615.86Z" fill="black"/>
<path id="Vector_21" opacity="0.1" d="M393 585.38V606.65H372.19V588.65C379.39 587.4 386.39 586.29 393 585.38Z" fill="black"/>
<path id="Vector_22" d="M258.54 615.49C258.54 615.49 426.62 571.49 440.22 588.28C453.82 605.07 468.23 627.49 425.85 635.49C383.47 643.49 255.37 621.88 255.37 621.88L258.54 615.49Z" fill="#B85959"/>
<path id="Vector_23" opacity="0.1" d="M341.21 541.37L319.85 560.92C316.067 556.064 311.791 551.614 307.09 547.64L327.03 526.81C332.164 531.249 336.908 536.12 341.21 541.37V541.37Z" fill="black"/>
<path id="Vector_24" d="M252.94 606.66L378.59 475.4L382.6 505.81L259.34 618.66L252.94 606.66Z" fill="#B85959"/>
<path id="Vector_25" opacity="0.1" d="M448.22 628.27C462.364 628.27 473.83 616.804 473.83 602.66C473.83 588.516 462.364 577.05 448.22 577.05C434.076 577.05 422.61 588.516 422.61 602.66C422.61 616.804 434.076 628.27 448.22 628.27Z" fill="black"/>
<path id="Vector_26" d="M449.83 628.27C463.974 628.27 475.44 616.804 475.44 602.66C475.44 588.516 463.974 577.05 449.83 577.05C435.686 577.05 424.22 588.516 424.22 602.66C424.22 616.804 435.686 628.27 449.83 628.27Z" fill="#535461"/>
<path id="Vector_27" d="M442.992 600.736L442.984 600.742C439.977 602.991 439.362 607.253 441.611 610.26L461.937 637.441C464.186 640.448 468.448 641.063 471.455 638.814L471.463 638.808C474.471 636.559 475.085 632.297 472.836 629.29L452.51 602.109C450.261 599.102 446 598.487 442.992 600.736Z" fill="#6C63FF"/>
<path id="Vector_28" d="M565.48 246.99L563.1 277.1C562.826 280.914 562.876 284.744 563.25 288.55C563.56 291.92 563.25 297.82 559.95 306.82C555.713 318.317 553.523 330.467 553.48 342.72V376.99L530.48 372.99C530.48 372.99 531.48 324.99 527.48 316.99C523.48 308.99 530.48 237.99 530.48 237.99L565.48 246.99Z" fill="#DB8B8B"/>
<path id="Vector_29" opacity="0.05" d="M564.3 261.91L563.1 277.1C562.83 280.911 562.883 284.738 563.26 288.54C563.57 291.91 563.26 297.81 559.96 306.82C555.723 318.317 553.533 330.467 553.49 342.72V376.99L530.49 372.99C530.49 372.99 531.49 324.99 527.49 316.99C524.66 311.32 527.34 274.05 529.15 252.78C529.9 244.03 530.49 237.99 530.49 237.99L565.49 246.99L564.3 261.91Z" fill="black"/>
<path id="Vector_30" d="M451.5 476.99L442.85 526.19C441.759 532.759 440.086 539.218 437.85 545.49C432.78 559.35 436.02 578.78 438.48 589.38C439.57 594.06 440.48 597.02 440.48 597.02L414.48 611.02L406.48 605.02V601.02L405.48 512.02C399.48 498.02 401.48 477.02 405.48 469.02C406.617 466.392 407.417 463.63 407.86 460.8C409.86 450.08 410.48 435.02 410.48 435.02C410.48 435.02 426.48 408.02 445.48 426.02C452.48 432.65 455.14 441.32 455.7 449.62C456.68 463.83 451.5 476.99 451.5 476.99Z" fill="#DB8B8B"/>
<path id="Vector_31" opacity="0.1" d="M455.7 449.59C441.83 457.83 417.7 460.16 407.86 460.77C409.86 450.05 410.48 434.99 410.48 434.99C410.48 434.99 426.48 407.99 445.48 425.99C452.48 432.62 455.14 441.29 455.7 449.59Z" fill="black"/>
<path id="Vector_32" d="M489.48 424.99C478.846 430.653 468.797 437.352 459.48 444.99C443.48 457.99 403.48 458.99 403.48 458.99V443.99C404.48 425.99 387.48 405.99 364.48 349.99C349.79 314.23 353.86 293.99 358.72 283.99C361.48 278.34 364.48 275.99 364.48 275.99L489.48 299.99L493.95 313.39L503.48 341.99C503.48 341.99 468.48 343.99 462.48 346.99C456.48 349.99 460.48 376.99 460.48 376.99C454.48 404.99 489.48 424.99 489.48 424.99Z" fill="#ABB1D1"/>
<path id="Vector_33" opacity="0.1" d="M565.48 246.99L564.3 261.91C546.9 266.91 534.48 250.99 534.48 250.99C532.665 251.477 530.882 252.074 529.14 252.78C529.89 244.03 530.48 237.99 530.48 237.99L565.48 246.99Z" fill="black"/>
<path id="Vector_34" opacity="0.1" d="M493.95 313.39C493.48 318.06 493.48 320.99 493.48 320.99C493.48 320.99 470.48 339.99 431.48 310.99C392.48 281.99 357.48 289.99 357.48 289.99C357.48 289.99 357.89 287.67 358.72 283.99C361.48 278.34 364.48 275.99 364.48 275.99L489.48 299.99L493.95 313.39Z" fill="black"/>
<path id="Vector_35" d="M578.96 207.94C576.35 228.29 575.48 253.94 575.48 253.94C552.48 271.94 534.48 248.94 534.48 248.94C512.76 254.77 502.55 273.78 497.74 290.37C495.164 299.344 493.732 308.607 493.48 317.94C493.48 317.94 487.4 322.94 476.2 323.94C465.61 324.83 450.43 322.07 431.48 307.94C392.48 278.94 357.48 286.94 357.48 286.94C357.48 286.94 364.48 246.94 380.48 234.94C396.48 222.94 408.48 207.94 428.48 161.94C448.48 115.94 489.48 126.94 489.48 126.94C489.48 126.94 491.48 117.94 528.48 126.94C537.492 129.302 545.834 133.721 552.85 139.85C572.64 156.49 582.24 182.3 578.96 207.94Z" fill="white"/>
<path id="Vector_36" d="M541.85 149.49C541.8 150.82 541.69 152.3 541.51 153.95C539.51 171.95 537.51 169.95 515.51 173.95C501.83 176.44 494.72 165.01 491.3 156.01C490.062 152.75 489.128 149.382 488.51 145.95L536.51 137.95C536.51 137.95 542.26 136.34 541.85 149.49Z" fill="#DB8B8B"/>
<path id="Vector_37" opacity="0.05" d="M497.74 290.42C495.164 299.394 493.732 308.657 493.48 317.99C493.48 317.99 487.4 322.99 476.2 323.99C475.884 323.353 475.643 322.682 475.48 321.99C473.48 312.99 458.48 296.99 458.48 296.99C448.48 287.99 446.48 271.99 446.48 271.99L429.98 223.49L424.48 218.99C424.48 218.99 447.48 200.99 467.48 215.99C487.48 230.99 481.48 262.99 481.48 262.99L485.48 273.99C489.63 277.49 493.85 283.66 497.74 290.42Z" fill="black"/>
<path id="Vector_38" d="M427.48 217.99L449.48 270.99C449.48 270.99 451.48 286.99 461.48 295.99C461.48 295.99 476.48 311.99 478.48 320.99C480.48 329.99 508.48 353.99 508.48 353.99C508.48 353.99 534.48 377.99 536.48 386.99C536.48 386.99 560.48 393.99 557.48 407.99C557.48 407.99 575.48 389.99 557.48 372.99C539.48 355.99 515.48 320.99 515.48 320.99C515.48 320.99 501.48 283.99 488.48 272.99L484.48 261.99C484.48 261.99 490.48 229.99 470.48 214.99C450.48 199.99 427.48 217.99 427.48 217.99Z" fill="#DB8B8B"/>
<path id="Vector_39" opacity="0.1" d="M440.48 596.99L414.48 610.99L406.48 604.99V600.99C415.464 600.352 424.193 597.718 432.03 593.28C434.43 591.92 436.69 590.58 438.5 589.4C439.55 594.03 440.48 596.99 440.48 596.99Z" fill="black"/>
<path id="Vector_40" opacity="0.1" d="M470.48 175.99L484.48 230.99C484.48 230.99 441.48 237.99 432.48 230.99C423.48 223.99 406.48 221.99 406.48 221.99C406.48 221.99 424.48 169.99 434.48 163.99C444.48 157.99 470.48 175.99 470.48 175.99Z" fill="black"/>
<path id="Vector_41" d="M470.48 173.99L484.48 228.99C484.48 228.99 441.48 235.99 432.48 228.99C423.48 221.99 406.48 219.99 406.48 219.99C406.48 219.99 424.48 167.99 434.48 161.99C444.48 155.99 470.48 173.99 470.48 173.99Z" fill="white"/>
<path id="Vector_42" opacity="0.1" d="M541.85 148.49C539.049 152.356 535.487 155.609 531.383 158.047C527.278 160.485 522.718 162.058 517.983 162.669C513.248 163.28 508.439 162.915 503.85 161.598C499.261 160.281 494.99 158.039 491.3 155.01C490.062 151.75 489.128 148.382 488.51 144.95L536.51 136.95C536.51 136.95 542.26 135.34 541.85 148.49Z" fill="black"/>
<path id="Vector_43" d="M548.48 126.99C548.48 136.273 544.793 145.175 538.229 151.739C531.665 158.303 522.763 161.99 513.48 161.99C504.197 161.99 495.295 158.303 488.731 151.739C482.168 145.175 478.48 136.273 478.48 126.99C478.48 126.41 478.48 125.83 478.48 125.25C478.711 115.967 482.62 107.157 489.346 100.756C496.073 94.3555 505.067 90.8893 514.35 91.12C523.633 91.3508 532.443 95.2595 538.844 101.986C545.245 108.713 548.711 117.707 548.48 126.99V126.99Z" fill="#DB8B8B"/>
<path id="Vector_44" opacity="0.1" d="M548.48 126.99C548.483 130.216 548.039 133.426 547.16 136.53C544.455 137.12 541.633 136.861 539.08 135.79C535.34 134.32 532.13 131.79 528.54 129.97C518.43 124.85 506.4 125.86 495.2 127.55C489.64 128.39 483.33 129.17 478.96 125.63C478.81 125.511 478.666 125.385 478.53 125.25C478.761 115.967 482.67 107.157 489.396 100.756C496.123 94.3555 505.117 90.8893 514.4 91.12C523.683 91.3508 532.493 95.2595 538.894 101.986C545.295 108.713 548.761 117.707 548.53 126.99H548.48Z" fill="black"/>
<path id="Vector_45" opacity="0.05" d="M384.98 234.49C384.98 234.49 410.98 241.49 418.98 259.49C426.98 277.49 448.62 280.78 448.62 280.78" fill="black"/>
<path id="Vector_46" d="M482.98 630.49H422.98V649.49H482.98V630.49Z" fill="#B85959"/>
<path id="Vector_47" d="M431.99 595.23C437.36 592.23 442.07 589.23 442.48 587.99C442.48 587.99 456.03 602.29 468.1 606.73C472.159 608.229 476.044 610.16 479.69 612.49C484.47 615.49 491.29 619.02 497.48 619.02C497.48 619.02 511.48 631.02 484.48 633.02C457.48 635.02 394.48 628.02 394.48 628.02L398.48 603.02C410.167 603.705 421.804 601 431.99 595.23Z" fill="#ABB1D1"/>
</g>
<path id="Background" opacity="0.3" d="M209.73 115.43C204.25 122.08 202.14 131.43 199.78 140.22C180.78 211.06 133.96 268.04 80.64 308.74C58.06 325.98 30.57 349.1 35.51 380.01C38.17 396.61 49.84 408.83 58.51 422.35C76.7 450.66 82.6 489.14 73.93 523.03C64.07 561.59 36.51 597.57 45.04 636.56C50.3 660.56 68.16 677.64 85.33 692.32C112.117 715.207 139.757 736.647 168.25 756.64C187.35 770.04 207.67 783.08 229.93 784.78C249.53 786.28 268.73 778.83 287.34 771.48C303.6 765.05 320.27 758.36 333.4 745.48C341.97 737.07 348.8 726.22 358.32 719.34C380.68 703.18 409.4 713.42 435.04 720.34C495.54 736.58 560.29 730.65 617.86 703.6C706.17 662.1 773.48 574.95 859.86 528.19C897 508.08 937.4 495.6 971.79 469.7C991.165 454.953 1007.81 436.936 1020.99 416.46C1046.99 376.35 1061.05 325.21 1056.99 275.15C1052.93 225.09 1030.18 176.85 994.45 148.59C956.2 118.34 907.89 112.69 864.37 94.53C819.43 75.77 779.45 43.53 734.94 23.4C698.924 7.15665 659.728 -0.81716 620.228 0.0636141C580.728 0.944389 541.926 10.6574 506.67 28.49C458.23 52.99 409.13 110.15 355.18 114.49C316.74 117.49 239.75 79.01 209.73 115.43Z" fill="url(#paint0_linear)"/>
<g id="Right Wheel">
<path id="Vector_48" d="M678.847 708.78L672.587 610.88L672.457 610.67L666.137 612.87L637.047 697.68L590.797 664.88L664.487 611.47L664.557 611.26L664.977 611.11L669.727 607.66L592.487 564.35L573.557 585.15L576.557 604.65L665.357 606.23V608.23L574.877 606.61L571.477 584.5L597.367 556.05L636.087 510.88L636.777 512.75L644.977 503.75L675.517 509.22V508.01L677.517 508.07V509.58L722.877 517.7L680.547 602.35L674.377 606.82V607.32V607.88L772.187 573.8L760.577 665.01L677.577 612.14L674.657 610.5L723.597 689.39L678.847 708.78ZM674.847 614.44L680.697 705.82L720.747 688.44L674.847 614.44ZM594.277 664.88L636.067 694.51L663.407 614.77L594.277 664.88ZM676.597 609.22L678.687 610.39L759.037 661.59L769.837 576.72L676.597 609.22ZM669.497 602.02L672.007 606.07L672.447 605.75L675.447 511.22L645.707 505.88L637.547 514.88L669.497 602.02ZM594.107 562.97L668.947 604.97L667.647 602.84L636.067 516.57L598.867 557.45L594.107 562.97ZM677.477 511.58L674.477 604.27L678.997 600.99L719.907 519.17L677.477 511.58Z" fill="#535461"/>
<path id="Vector_49" d="M673.757 490C663.144 489.988 652.578 491.415 642.347 494.24C637.071 495.695 631.904 497.523 626.887 499.71C600.157 511.297 578.674 532.387 566.594 558.898C554.514 585.41 552.697 615.459 561.492 643.233C570.287 671.008 589.071 694.533 614.209 709.259C639.348 723.984 669.054 728.863 697.582 722.952C726.109 717.04 751.431 700.759 768.648 677.257C785.865 653.755 793.754 624.702 790.789 595.72C787.823 566.738 774.215 539.885 752.595 520.356C730.975 500.828 702.881 490.012 673.747 490H673.757ZM673.357 696.09C653.076 696.082 633.408 689.137 617.62 676.407C601.831 663.678 590.872 645.931 586.562 626.113C582.252 606.295 584.851 585.599 593.928 567.463C603.004 549.326 618.011 534.84 636.457 526.41C641.149 524.262 646.021 522.532 651.017 521.24C663.229 518.07 675.977 517.537 688.411 519.678C700.845 521.818 712.681 526.581 723.13 533.652C733.58 540.722 742.404 549.937 749.015 560.683C755.627 571.429 759.873 583.46 761.473 595.975C763.073 608.49 761.989 621.202 758.293 633.265C754.598 645.329 748.375 656.467 740.04 665.939C731.704 675.41 721.447 682.998 709.951 688.196C698.455 693.395 685.984 696.086 673.367 696.09H673.357Z" fill="#535461"/>
<path id="Vector_50" d="M673.357 620.06C680.432 620.06 686.167 614.325 686.167 607.25C686.167 600.175 680.432 594.44 673.357 594.44C666.282 594.44 660.547 600.175 660.547 607.25C660.547 614.325 666.282 620.06 673.357 620.06Z" fill="#535461"/>
</g>
<g id="Left Wheel">
<path id="Vector_51" d="M258.725 715.778L252.455 617.838L252.325 617.628L246.005 619.828L216.925 704.678L170.675 671.888L244.345 618.478L244.415 618.268L244.835 618.118L249.585 614.668L172.345 571.358L153.425 592.158L156.425 611.658L245.245 613.278V615.278L154.765 613.658L151.345 591.518L177.245 563.058L215.995 517.858L216.685 519.728L224.885 510.728L255.345 516.188V514.978L257.345 515.038V516.548L302.705 524.668L260.415 609.278L254.245 613.748V614.248V614.808L352.045 580.728L340.435 671.938L257.435 619.068L254.515 617.428L303.455 696.308L258.725 715.778ZM254.725 621.438L260.575 712.818L300.625 695.438L254.725 621.438ZM174.145 671.868L215.935 701.498L243.275 621.758L174.145 671.868ZM256.465 616.208L258.555 617.378L338.905 668.578L349.705 583.708L256.465 616.208ZM249.365 609.008L251.875 613.058L252.315 612.738L255.315 518.208L225.575 512.888L217.415 521.888L249.365 609.008ZM173.945 569.948L248.785 611.948L247.485 609.818L215.905 523.548L178.715 564.418L173.945 569.948ZM257.345 518.558L254.345 611.278L258.865 607.998L299.775 526.178L257.345 518.558Z" fill="#535461"/>
<path id="Vector_52" d="M368.415 588.738C364.405 570.919 356.285 554.283 344.705 540.158C340.406 534.909 335.666 530.038 330.535 525.598C310.809 508.567 285.986 498.568 259.962 497.17C233.938 495.771 208.187 503.053 186.749 517.873C165.311 532.693 149.401 554.211 141.515 579.05C133.629 603.89 134.214 630.645 143.178 655.116C152.142 679.587 168.978 700.39 191.042 714.258C213.107 728.127 239.152 734.277 265.09 731.743C291.028 729.208 315.39 718.134 334.353 700.257C353.317 682.379 365.807 658.712 369.865 632.968C370.809 626.907 371.284 620.783 371.285 614.648C371.292 605.932 370.329 597.242 368.415 588.738ZM253.225 703.088C234.993 703.069 217.209 697.435 202.292 686.953C187.374 676.47 176.047 661.648 169.851 644.501C163.655 627.354 162.89 608.715 167.66 591.118C172.43 573.521 182.505 557.82 196.513 546.15C210.521 534.48 227.783 527.408 245.953 525.895C264.122 524.381 282.316 528.501 298.062 537.693C313.807 546.884 326.34 560.703 333.956 577.268C341.571 593.834 343.9 612.343 340.625 630.278C336.875 650.722 326.076 669.203 310.107 682.506C294.137 695.809 274.01 703.093 253.225 703.088V703.088Z" fill="#535461"/>
<path id="Vector_53" d="M253.225 627.058C260.3 627.058 266.035 621.323 266.035 614.248C266.035 607.174 260.3 601.438 253.225 601.438C246.15 601.438 240.415 607.174 240.415 614.248C240.415 621.323 246.15 627.058 253.225 627.058Z" fill="#535461"/>
</g>
<path id="Hat" d="M456.624 104.927C458.754 111.607 468.984 111.817 474.234 116.737C476.964 119.297 478.234 123.077 481.234 125.357C485.404 128.537 491.424 127.837 496.734 127.077C507.424 125.557 518.904 124.647 528.544 129.257C531.964 130.887 535.034 133.167 538.604 134.497C542.174 135.827 546.604 135.987 549.504 133.627C551.824 131.737 552.674 128.627 554.774 126.547C556.404 124.907 558.674 123.987 560.534 122.547C564.614 119.467 566.374 114.447 567.534 109.647C569.934 99.7667 570.624 89.1167 566.534 79.7467C562.444 70.3767 552.604 62.7467 541.864 63.2367C538.574 63.3867 535.364 64.2367 532.084 64.5967C523.534 65.4667 515.084 62.5967 506.504 62.1067C504.015 61.8039 501.49 62.1483 499.174 63.1067C497.427 64.0775 495.92 65.4273 494.764 67.0567C490.836 72.2021 488.146 78.1836 486.904 84.5367C485.904 89.3267 485.854 93.6667 479.984 94.4067C473.314 95.2867 452.114 90.7967 456.624 104.927Z" fill="#472727"/>
</g>
</g>
<defs>
<linearGradient id="paint0_linear" x1="1086.5" y1="400.5" x2="-43.5" y2="447" gradientUnits="userSpaceOnUse">
<stop stop-color="#736EBE"/>
<stop offset="1" stop-color="#6C63FF" stop-opacity="0"/>
</linearGradient>
<clipPath id="clip0">
<rect width="1057.7" height="784.98" fill="white"/>
</clipPath>
</defs>
</svg>
